<mxfile host="app.diagrams.net" agent="Mozilla/5.0 (Windows NT 10.0; Win64; x64) AppleWebKit/537.36 (KHTML, like Gecko) Chrome/135.0.0.0 Safari/537.36" version="26.2.12">
  <diagram name="Page-1" id="2YnpZhXF6wRhozjJA7x2">
    <mxGraphModel dx="930" dy="623" grid="1" gridSize="10" guides="1" tooltips="1" connect="1" arrows="1" fold="1" page="1" pageScale="1" pageWidth="850" pageHeight="1100" math="0" shadow="0">
      <root>
        <mxCell id="0" />
        <mxCell id="1" parent="0" />
        <mxCell id="_Dt9FOxW4akybTTcinDJ-1" value="&lt;b&gt;&lt;font style=&quot;font-size: 15px;&quot;&gt;Customer Purchases&lt;/font&gt;&lt;/b&gt;&lt;div&gt;&lt;br&gt;&lt;/div&gt;&lt;div&gt;&lt;ul&gt;&lt;li style=&quot;text-align: left;&quot;&gt;product_id&lt;/li&gt;&lt;li style=&quot;text-align: left;&quot;&gt;vendor_id&lt;/li&gt;&lt;li style=&quot;text-align: left;&quot;&gt;market_date&amp;nbsp;&lt;/li&gt;&lt;li style=&quot;text-align: left;&quot;&gt;customer_id&lt;/li&gt;&lt;li style=&quot;text-align: left;&quot;&gt;quantity&lt;/li&gt;&lt;li style=&quot;text-align: left;&quot;&gt;cost_to_customer_per_qyt&lt;/li&gt;&lt;li style=&quot;text-align: left;&quot;&gt;transaction_time&lt;/li&gt;&lt;/ul&gt;&lt;/div&gt;" style="whiteSpace=wrap;html=1;aspect=fixed;" parent="1" vertex="1">
          <mxGeometry x="270" y="340" width="190" height="190" as="geometry" />
        </mxCell>
        <mxCell id="YIpYiQoGRaf6n58F6zKI-3" value="" style="edgeStyle=orthogonalEdgeStyle;rounded=0;orthogonalLoop=1;jettySize=auto;html=1;" edge="1" parent="1" source="_Dt9FOxW4akybTTcinDJ-2" target="_Dt9FOxW4akybTTcinDJ-1">
          <mxGeometry relative="1" as="geometry" />
        </mxCell>
        <mxCell id="_Dt9FOxW4akybTTcinDJ-2" value="&lt;b&gt;&lt;font style=&quot;font-size: 15px;&quot;&gt;Customer&lt;/font&gt;&lt;/b&gt;&lt;div&gt;&lt;ul&gt;&lt;li style=&quot;text-align: left;&quot;&gt;&lt;font&gt;customer_id&lt;/font&gt;&lt;/li&gt;&lt;li style=&quot;text-align: left;&quot;&gt;&lt;font&gt;customer_first_name&lt;/font&gt;&lt;/li&gt;&lt;li style=&quot;text-align: left;&quot;&gt;&lt;font&gt;customer_last_name&lt;/font&gt;&lt;/li&gt;&lt;li style=&quot;text-align: left;&quot;&gt;&lt;font&gt;customer_postal_code&lt;/font&gt;&lt;/li&gt;&lt;/ul&gt;&lt;/div&gt;" style="whiteSpace=wrap;html=1;aspect=fixed;" parent="1" vertex="1">
          <mxGeometry x="330" y="70" width="190" height="190" as="geometry" />
        </mxCell>
        <mxCell id="_Dt9FOxW4akybTTcinDJ-5" value="&lt;b&gt;&lt;font style=&quot;font-size: 15px;&quot;&gt;Vendor_inventory&lt;/font&gt;&lt;/b&gt;&lt;div&gt;&lt;ul&gt;&lt;li style=&quot;text-align: left;&quot;&gt;&lt;font&gt;market_date&lt;/font&gt;&lt;/li&gt;&lt;li style=&quot;text-align: left;&quot;&gt;&lt;font&gt;quantity&lt;/font&gt;&lt;/li&gt;&lt;li style=&quot;text-align: left;&quot;&gt;&lt;font&gt;vendor_id&lt;/font&gt;&lt;/li&gt;&lt;li style=&quot;text-align: left;&quot;&gt;product_id&lt;/li&gt;&lt;li style=&quot;text-align: left;&quot;&gt;original_price&lt;b style=&quot;background-color: transparent; color: light-dark(rgb(0, 0, 0), rgb(255, 255, 255)); font-size: 15px;&quot;&gt;&amp;nbsp;&lt;/b&gt;&lt;/li&gt;&lt;/ul&gt;&lt;/div&gt;" style="whiteSpace=wrap;html=1;aspect=fixed;" parent="1" vertex="1">
          <mxGeometry x="600" y="340" width="180" height="180" as="geometry" />
        </mxCell>
        <mxCell id="YIpYiQoGRaf6n58F6zKI-2" value="" style="edgeStyle=orthogonalEdgeStyle;rounded=0;orthogonalLoop=1;jettySize=auto;html=1;entryX=-0.053;entryY=0.342;entryDx=0;entryDy=0;entryPerimeter=0;" edge="1" parent="1" source="_Dt9FOxW4akybTTcinDJ-7" target="_Dt9FOxW4akybTTcinDJ-2">
          <mxGeometry relative="1" as="geometry">
            <mxPoint x="290" y="140" as="targetPoint" />
          </mxGeometry>
        </mxCell>
        <mxCell id="_Dt9FOxW4akybTTcinDJ-7" value="&lt;b&gt;&lt;font style=&quot;font-size: 15px;&quot;&gt;postal data&lt;/font&gt;&lt;/b&gt;&lt;div&gt;&lt;ul&gt;&lt;li style=&quot;text-align: left;&quot;&gt;&lt;font style=&quot;&quot;&gt;postal_code_3&lt;/font&gt;&lt;/li&gt;&lt;li style=&quot;text-align: left;&quot;&gt;&lt;font&gt;city&lt;/font&gt;&lt;/li&gt;&lt;li style=&quot;text-align: left;&quot;&gt;&lt;font&gt;district&lt;/font&gt;&lt;/li&gt;&lt;li style=&quot;text-align: left;&quot;&gt;&lt;font&gt;population&lt;/font&gt;&lt;/li&gt;&lt;li style=&quot;text-align: left;&quot;&gt;&lt;font&gt;median_household_incom&lt;/font&gt;&lt;font&gt;e&lt;/font&gt;&lt;/li&gt;&lt;li style=&quot;text-align: left;&quot;&gt;&lt;font style=&quot;&quot;&gt;percent_under_14&lt;/font&gt;&lt;/li&gt;&lt;li style=&quot;text-align: left;&quot;&gt;&lt;font style=&quot;&quot;&gt;percent_over_65&lt;/font&gt;&lt;/li&gt;&lt;li style=&quot;text-align: left;&quot;&gt;&lt;font style=&quot;&quot;&gt;labour_force&lt;/font&gt;&lt;/li&gt;&lt;li style=&quot;text-align: left;&quot;&gt;latitude&lt;/li&gt;&lt;li style=&quot;text-align: left;&quot;&gt;longitude&lt;/li&gt;&lt;/ul&gt;&lt;/div&gt;" style="whiteSpace=wrap;html=1;aspect=fixed;" parent="1" vertex="1">
          <mxGeometry x="30" y="70" width="200" height="200" as="geometry" />
        </mxCell>
        <mxCell id="YIpYiQoGRaf6n58F6zKI-5" value="1" style="text;html=1;align=center;verticalAlign=middle;resizable=0;points=[];autosize=1;strokeColor=none;fillColor=none;" vertex="1" parent="1">
          <mxGeometry x="245" y="138" width="30" height="30" as="geometry" />
        </mxCell>
        <mxCell id="YIpYiQoGRaf6n58F6zKI-10" value="1" style="text;html=1;align=center;verticalAlign=middle;resizable=0;points=[];autosize=1;strokeColor=none;fillColor=none;" vertex="1" parent="1">
          <mxGeometry x="275" y="108" width="30" height="30" as="geometry" />
        </mxCell>
        <mxCell id="YIpYiQoGRaf6n58F6zKI-12" value="1" style="text;html=1;align=center;verticalAlign=middle;resizable=0;points=[];autosize=1;strokeColor=none;fillColor=none;" vertex="1" parent="1">
          <mxGeometry x="395" y="268" width="30" height="30" as="geometry" />
        </mxCell>
        <mxCell id="YIpYiQoGRaf6n58F6zKI-13" value="8" style="text;html=1;align=center;verticalAlign=middle;resizable=0;points=[];autosize=1;strokeColor=none;fillColor=none;rotation=90;" vertex="1" parent="1">
          <mxGeometry x="380" y="310" width="30" height="30" as="geometry" />
        </mxCell>
        <mxCell id="YIpYiQoGRaf6n58F6zKI-15" value="8" style="text;html=1;align=center;verticalAlign=middle;resizable=0;points=[];autosize=1;strokeColor=none;fillColor=none;rotation=90;" vertex="1" parent="1">
          <mxGeometry x="555" y="408" width="30" height="30" as="geometry" />
        </mxCell>
        <mxCell id="YIpYiQoGRaf6n58F6zKI-16" value="8" style="text;html=1;align=center;verticalAlign=middle;resizable=0;points=[];autosize=1;strokeColor=none;fillColor=none;rotation=90;" vertex="1" parent="1">
          <mxGeometry x="465" y="408" width="30" height="30" as="geometry" />
        </mxCell>
        <mxCell id="YIpYiQoGRaf6n58F6zKI-18" value="" style="endArrow=classic;html=1;rounded=0;entryX=1.012;entryY=1.038;entryDx=0;entryDy=0;entryPerimeter=0;exitX=-0.032;exitY=0.542;exitDx=0;exitDy=0;exitPerimeter=0;" edge="1" parent="1" source="_Dt9FOxW4akybTTcinDJ-5" target="YIpYiQoGRaf6n58F6zKI-16">
          <mxGeometry width="50" height="50" relative="1" as="geometry">
            <mxPoint x="590" y="460" as="sourcePoint" />
            <mxPoint x="510" y="437" as="targetPoint" />
            <Array as="points">
              <mxPoint x="542.26" y="436.77" />
            </Array>
          </mxGeometry>
        </mxCell>
      </root>
    </mxGraphModel>
  </diagram>
</mxfile>
